<?xml version="1.0" encoding="iso-8859-1"?>
<!-- Uploaded to: SVG Repo, www.svgrepo.com, Generator: SVG Repo Mixer Tools -->
<svg fill="#000000" height="800px" width="800px" version="1.1" id="Layer_1" xmlns="http://www.w3.org/2000/svg" xmlns:xlink="http://www.w3.org/1999/xlink" 
	 viewBox="0 0 512 512" xml:space="preserve">
<g>
	<g>
		<path d="M262.946,265.62c0-46.267-37.641-83.908-83.908-83.908c-22.091,0-42.946,8.514-58.725,23.974
			c-9.47,9.281-9.625,24.539-0.344,34.011c9.282,9.47,24.538,9.624,34.01,0.345c6.733-6.597,15.633-10.23,25.059-10.23
			c19.745,0,35.808,16.063,35.808,35.808c0,19.745-16.063,35.808-35.808,35.808c-13.262,0-24.05,10.788-24.05,24.05
			s10.788,24.05,24.05,24.05c19.745,0,35.808,16.063,35.808,35.808s-16.063,35.808-35.808,35.808c-9.7,0-18.784-3.816-25.575-10.747
			c-9.282-9.469-24.54-9.623-34.011-0.341c-9.47,9.283-9.623,24.54-0.341,34.01c15.913,16.235,37.195,25.178,59.928,25.178
			c46.267,0,83.908-37.641,83.908-83.908c0-22.787-9.059-44.126-25.141-59.858C253.887,309.746,262.946,288.407,262.946,265.62z
			 M246.912,385.336c0,37.426-30.449,67.875-67.875,67.875c-18.388,0-35.605-7.233-48.478-20.368
			c-2.752-2.856-3.046-7.399-0.594-10.544c2.935-3.766,8.706-4.087,12.045-0.68c9.833,10.033,22.981,15.558,37.026,15.558
			c28.585,0,51.841-23.256,51.841-51.841s-23.256-51.841-51.841-51.841c-4.421,0-8.017-3.596-8.017-8.017
			c0-4.421,3.596-8.017,8.017-8.017c28.585,0,51.841-23.256,51.841-51.841s-23.256-51.841-51.841-51.841
			c-13.649,0-26.533,5.26-36.28,14.811c-3.157,3.093-8.243,3.042-11.337-0.114c-3.094-3.157-3.042-8.243,0.114-11.337
			c12.763-12.506,29.633-19.393,47.503-19.393c37.426,0,67.875,30.448,67.875,67.875c0,21.032-9.551,40.545-26.202,53.538
			c-4.048,3.16-4.048,9.482,0,12.641C237.363,344.791,246.912,364.305,246.912,385.336z"/>
	</g>
</g>
<g>
	<g>
		<path d="M469.779,51.307h-77.495V25.119C392.284,11.268,381.016,0,367.165,0c-13.851,0-25.119,11.268-25.119,25.119v26.188
			h-60.927V25.119C281.119,11.268,269.851,0,256,0s-25.119,11.268-25.119,25.119v26.188h-69.478V25.119
			C161.403,11.268,150.135,0,136.284,0s-25.119,11.268-25.119,25.119v26.188H42.221C18.941,51.307,0,70.248,0,93.528v153.921
			c0,4.427,3.589,8.017,8.017,8.017c4.427,0,8.017-3.589,8.017-8.017v-86.046h402.438c4.427,0,8.017-3.589,8.017-8.017
			s-3.589-8.017-8.017-8.017H16.033V93.528c0-14.44,11.748-26.188,26.188-26.188h68.944v26.188
			c0,13.851,11.268,25.119,25.119,25.119s25.119-11.268,25.119-25.119V67.34h69.478v26.188c0,13.851,11.268,25.119,25.119,25.119
			s25.119-11.268,25.119-25.119V67.34h60.927v26.188c0,13.851,11.268,25.119,25.119,25.119c13.851,0,25.119-11.268,25.119-25.119
			V67.34h77.495c14.44,0,26.188,11.748,26.188,26.188v51.841h-34.739c-4.427,0-8.017,3.589-8.017,8.017s3.589,8.017,8.017,8.017
			h34.739v158.196h-96.203V205.762c0-9.119-5.292-17.598-13.484-21.604c-8.19-4.004-18.133-2.976-25.331,2.621l-76.96,59.858
			c-10.468,8.142-12.36,23.282-4.219,33.749c8.044,10.343,23.395,12.273,33.749,4.219l38.146-29.668v64.663h-24.049
			c-4.427,0-8.017,3.589-8.017,8.017v168.351H16.033V290.205c0-4.427-3.589-8.017-8.017-8.017c-4.427,0-8.017,3.589-8.017,8.017
			v213.779C0,508.411,3.589,512,8.017,512h319.599c2.102,0,4.184-0.863,5.67-2.349c0,0,176.729-176.749,176.897-176.954
			c1.165-1.416,1.817-3.25,1.817-5.084V93.528C512,70.248,493.059,51.307,469.779,51.307z M145.37,93.528
			c0,5.01-4.076,9.086-9.086,9.086s-9.086-4.076-9.086-9.086V25.119c0-5.01,4.076-9.086,9.086-9.086s9.086,4.076,9.086,9.086V93.528
			z M265.086,93.528c0,5.01-4.076,9.086-9.086,9.086s-9.086-4.076-9.086-9.086V25.119c0-5.01,4.076-9.086,9.086-9.086
			s9.086,4.076,9.086,9.086V93.528z M376.251,93.528c0,5.01-4.076,9.086-9.086,9.086c-5.01,0-9.086-4.076-9.086-9.086V25.119
			c0-5.01,4.076-9.086,9.086-9.086c5.01,0,9.086,4.076,9.086,9.086V93.528z M303.676,271.948c-3.446,2.68-8.576,2.045-11.249-1.407
			c-2.678-3.456-2.045-8.565,1.406-11.25l76.96-59.858c5.164-4.013,12.939-0.2,12.939,6.328v113.838h-16.033v-81.055
			c0-6.533-7.77-10.346-12.938-6.328L303.676,271.948z M335.633,484.63V335.633H484.63L335.633,484.63z"/>
	</g>
</g>
</svg>